# xmcd CD database file
#
# Track frame offsets:
#	150
#	14966
#	33978
#	47772
#	65939
#	80338
#	96178
#	111430
#	130679
#	146677
#	161651
#	174798
#
# Disc length: 2613 seconds
#
# Revision: 8
# Processed by: cddbd v1.5.2PL0 Copyright (c) Steve Scherf et al.
# Submitted via: CDex 1.51
#
DISCID=a70a330c
DTITLE=The Stompcrash - Requiem Rosa
DYEAR=2007
DGENRE=Blues
TTITLE0=The London Fog
TTITLE1=Like a Noise
TTITLE2=Watching me Fall
TTITLE3=99 Cats
TTITLE4=Dorian
TTITLE5=Modern Slaves
TTITLE6=I Will Kill Myself
TTITLE7=Moscow
TTITLE8=Wake up in a Grave
TTITLE9=Bloody Rain
TTITLE10=The Wind that moves the Flowers
TTITLE11=Mountains of Madness
EXTD=YEAR: 2007
EXTT0=
EXTT1=
EXTT2=
EXTT3=
EXTT4=
EXTT5=
EXTT6=
EXTT7=
EXTT8=
EXTT9=
EXTT10=
EXTT11=
PLAYORDER=
